<mxfile host="app.diagrams.net" agent="Mozilla/5.0 (Windows NT 10.0; Win64; x64) AppleWebKit/537.36 (KHTML, like Gecko) Chrome/133.0.0.0 Safari/537.36" version="26.1.0">
  <diagram id="C5RBs43oDa-KdzZeNtuy" name="Page-1">
    <mxGraphModel dx="2074" dy="1132" grid="1" gridSize="10" guides="1" tooltips="1" connect="1" arrows="1" fold="1" page="1" pageScale="1" pageWidth="827" pageHeight="1169" math="0" shadow="0">
      <root>
        <mxCell id="WIyWlLk6GJQsqaUBKTNV-0" />
        <mxCell id="WIyWlLk6GJQsqaUBKTNV-1" parent="WIyWlLk6GJQsqaUBKTNV-0" />
        <mxCell id="HiGR0V0xMvPDKsH27MNp-20" style="edgeStyle=orthogonalEdgeStyle;rounded=0;orthogonalLoop=1;jettySize=auto;html=1;" edge="1" parent="WIyWlLk6GJQsqaUBKTNV-1" source="HiGR0V0xMvPDKsH27MNp-0" target="HiGR0V0xMvPDKsH27MNp-19">
          <mxGeometry relative="1" as="geometry" />
        </mxCell>
        <mxCell id="HiGR0V0xMvPDKsH27MNp-0" value="cp3&lt;div&gt;snap&lt;/div&gt;" style="rounded=1;whiteSpace=wrap;html=1;fillColor=#f8cecc;strokeColor=#b85450;" vertex="1" parent="WIyWlLk6GJQsqaUBKTNV-1">
          <mxGeometry x="302.5" y="180" width="135" height="40" as="geometry" />
        </mxCell>
        <mxCell id="HiGR0V0xMvPDKsH27MNp-17" style="edgeStyle=orthogonalEdgeStyle;rounded=0;orthogonalLoop=1;jettySize=auto;html=1;" edge="1" parent="WIyWlLk6GJQsqaUBKTNV-1" source="HiGR0V0xMvPDKsH27MNp-1">
          <mxGeometry relative="1" as="geometry">
            <mxPoint x="370" y="180" as="targetPoint" />
          </mxGeometry>
        </mxCell>
        <mxCell id="HiGR0V0xMvPDKsH27MNp-1" value="_snap_pre.bin" style="rounded=0;whiteSpace=wrap;html=1;fillColor=#f5f5f5;fontColor=#333333;strokeColor=#666666;" vertex="1" parent="WIyWlLk6GJQsqaUBKTNV-1">
          <mxGeometry x="180" y="80" width="90" height="40" as="geometry" />
        </mxCell>
        <mxCell id="HiGR0V0xMvPDKsH27MNp-14" style="edgeStyle=orthogonalEdgeStyle;rounded=0;orthogonalLoop=1;jettySize=auto;html=1;" edge="1" parent="WIyWlLk6GJQsqaUBKTNV-1" source="HiGR0V0xMvPDKsH27MNp-8">
          <mxGeometry relative="1" as="geometry">
            <mxPoint x="370" y="180" as="targetPoint" />
          </mxGeometry>
        </mxCell>
        <mxCell id="HiGR0V0xMvPDKsH27MNp-8" value="_snap_post.bin" style="rounded=0;whiteSpace=wrap;html=1;fillColor=#f5f5f5;fontColor=#333333;strokeColor=#666666;" vertex="1" parent="WIyWlLk6GJQsqaUBKTNV-1">
          <mxGeometry x="470" y="80" width="90" height="40" as="geometry" />
        </mxCell>
        <mxCell id="HiGR0V0xMvPDKsH27MNp-15" style="edgeStyle=orthogonalEdgeStyle;rounded=0;orthogonalLoop=1;jettySize=auto;html=1;" edge="1" parent="WIyWlLk6GJQsqaUBKTNV-1" source="HiGR0V0xMvPDKsH27MNp-9">
          <mxGeometry relative="1" as="geometry">
            <mxPoint x="370" y="180" as="targetPoint" />
          </mxGeometry>
        </mxCell>
        <mxCell id="HiGR0V0xMvPDKsH27MNp-9" value="_cp3_post.bin" style="rounded=0;whiteSpace=wrap;html=1;fillColor=#f5f5f5;fontColor=#333333;strokeColor=#666666;" vertex="1" parent="WIyWlLk6GJQsqaUBKTNV-1">
          <mxGeometry x="400" y="30" width="90" height="40" as="geometry" />
        </mxCell>
        <mxCell id="HiGR0V0xMvPDKsH27MNp-16" style="edgeStyle=orthogonalEdgeStyle;rounded=0;orthogonalLoop=1;jettySize=auto;html=1;" edge="1" parent="WIyWlLk6GJQsqaUBKTNV-1" source="HiGR0V0xMvPDKsH27MNp-10">
          <mxGeometry relative="1" as="geometry">
            <mxPoint x="370" y="180" as="targetPoint" />
          </mxGeometry>
        </mxCell>
        <mxCell id="HiGR0V0xMvPDKsH27MNp-10" value="_cp3_pre.bin" style="rounded=0;whiteSpace=wrap;html=1;fillColor=#f5f5f5;fontColor=#333333;strokeColor=#666666;" vertex="1" parent="WIyWlLk6GJQsqaUBKTNV-1">
          <mxGeometry x="260" y="30" width="90" height="40" as="geometry" />
        </mxCell>
        <mxCell id="HiGR0V0xMvPDKsH27MNp-18" style="edgeStyle=orthogonalEdgeStyle;rounded=0;orthogonalLoop=1;jettySize=auto;html=1;entryX=0.5;entryY=0;entryDx=0;entryDy=0;" edge="1" parent="WIyWlLk6GJQsqaUBKTNV-1" source="HiGR0V0xMvPDKsH27MNp-11" target="HiGR0V0xMvPDKsH27MNp-0">
          <mxGeometry relative="1" as="geometry" />
        </mxCell>
        <mxCell id="HiGR0V0xMvPDKsH27MNp-11" value="_stim_pre.bin" style="rounded=0;whiteSpace=wrap;html=1;fillColor=#f5f5f5;fontColor=#333333;strokeColor=#666666;" vertex="1" parent="WIyWlLk6GJQsqaUBKTNV-1">
          <mxGeometry x="160" y="130" width="90" height="40" as="geometry" />
        </mxCell>
        <mxCell id="HiGR0V0xMvPDKsH27MNp-13" style="edgeStyle=orthogonalEdgeStyle;rounded=0;orthogonalLoop=1;jettySize=auto;html=1;entryX=0.5;entryY=0;entryDx=0;entryDy=0;" edge="1" parent="WIyWlLk6GJQsqaUBKTNV-1" source="HiGR0V0xMvPDKsH27MNp-12" target="HiGR0V0xMvPDKsH27MNp-0">
          <mxGeometry relative="1" as="geometry" />
        </mxCell>
        <mxCell id="HiGR0V0xMvPDKsH27MNp-12" value="_stim_post.bin" style="rounded=0;whiteSpace=wrap;html=1;fillColor=#f5f5f5;fontColor=#333333;strokeColor=#666666;" vertex="1" parent="WIyWlLk6GJQsqaUBKTNV-1">
          <mxGeometry x="480" y="130" width="90" height="40" as="geometry" />
        </mxCell>
        <mxCell id="HiGR0V0xMvPDKsH27MNp-23" style="edgeStyle=orthogonalEdgeStyle;rounded=0;orthogonalLoop=1;jettySize=auto;html=1;entryX=0.5;entryY=0;entryDx=0;entryDy=0;" edge="1" parent="WIyWlLk6GJQsqaUBKTNV-1" source="HiGR0V0xMvPDKsH27MNp-19" target="HiGR0V0xMvPDKsH27MNp-21">
          <mxGeometry relative="1" as="geometry" />
        </mxCell>
        <mxCell id="HiGR0V0xMvPDKsH27MNp-24" style="edgeStyle=orthogonalEdgeStyle;rounded=0;orthogonalLoop=1;jettySize=auto;html=1;entryX=0.5;entryY=0;entryDx=0;entryDy=0;" edge="1" parent="WIyWlLk6GJQsqaUBKTNV-1" source="HiGR0V0xMvPDKsH27MNp-19" target="HiGR0V0xMvPDKsH27MNp-22">
          <mxGeometry relative="1" as="geometry" />
        </mxCell>
        <mxCell id="HiGR0V0xMvPDKsH27MNp-19" value="&lt;b&gt;Sliced Data&lt;/b&gt;&lt;div&gt;_cp3.csv&lt;div&gt;_snap.csv&lt;/div&gt;&lt;/div&gt;" style="rounded=0;whiteSpace=wrap;html=1;fillColor=#f5f5f5;fontColor=#333333;strokeColor=#666666;" vertex="1" parent="WIyWlLk6GJQsqaUBKTNV-1">
          <mxGeometry x="310" y="260" width="120" height="60" as="geometry" />
        </mxCell>
        <mxCell id="HiGR0V0xMvPDKsH27MNp-26" style="edgeStyle=orthogonalEdgeStyle;rounded=0;orthogonalLoop=1;jettySize=auto;html=1;entryX=0.5;entryY=0;entryDx=0;entryDy=0;" edge="1" parent="WIyWlLk6GJQsqaUBKTNV-1" source="HiGR0V0xMvPDKsH27MNp-21" target="HiGR0V0xMvPDKsH27MNp-25">
          <mxGeometry relative="1" as="geometry" />
        </mxCell>
        <mxCell id="HiGR0V0xMvPDKsH27MNp-21" value="&lt;i&gt;Plot Participant SEPs&lt;/i&gt;" style="rounded=1;whiteSpace=wrap;html=1;fillColor=#f8cecc;strokeColor=#b85450;" vertex="1" parent="WIyWlLk6GJQsqaUBKTNV-1">
          <mxGeometry x="200" y="360" width="140" height="60" as="geometry" />
        </mxCell>
        <mxCell id="HiGR0V0xMvPDKsH27MNp-28" style="edgeStyle=orthogonalEdgeStyle;rounded=0;orthogonalLoop=1;jettySize=auto;html=1;entryX=0.5;entryY=0;entryDx=0;entryDy=0;" edge="1" parent="WIyWlLk6GJQsqaUBKTNV-1" source="HiGR0V0xMvPDKsH27MNp-22" target="HiGR0V0xMvPDKsH27MNp-27">
          <mxGeometry relative="1" as="geometry" />
        </mxCell>
        <mxCell id="HiGR0V0xMvPDKsH27MNp-22" value="&lt;i&gt;Summarize Participant SEPs&lt;/i&gt;" style="rounded=1;whiteSpace=wrap;html=1;fillColor=#f8cecc;strokeColor=#b85450;" vertex="1" parent="WIyWlLk6GJQsqaUBKTNV-1">
          <mxGeometry x="400" y="360" width="120" height="60" as="geometry" />
        </mxCell>
        <mxCell id="HiGR0V0xMvPDKsH27MNp-25" value="processed_participant.png" style="rounded=0;whiteSpace=wrap;html=1;fillColor=#f5f5f5;fontColor=#333333;strokeColor=#666666;" vertex="1" parent="WIyWlLk6GJQsqaUBKTNV-1">
          <mxGeometry x="170" y="470" width="170" height="60" as="geometry" />
        </mxCell>
        <mxCell id="HiGR0V0xMvPDKsH27MNp-33" style="edgeStyle=orthogonalEdgeStyle;rounded=0;orthogonalLoop=1;jettySize=auto;html=1;entryX=0.5;entryY=0;entryDx=0;entryDy=0;" edge="1" parent="WIyWlLk6GJQsqaUBKTNV-1" source="HiGR0V0xMvPDKsH27MNp-27" target="HiGR0V0xMvPDKsH27MNp-29">
          <mxGeometry relative="1" as="geometry" />
        </mxCell>
        <mxCell id="HiGR0V0xMvPDKsH27MNp-36" style="edgeStyle=orthogonalEdgeStyle;rounded=0;orthogonalLoop=1;jettySize=auto;html=1;" edge="1" parent="WIyWlLk6GJQsqaUBKTNV-1" source="HiGR0V0xMvPDKsH27MNp-27" target="HiGR0V0xMvPDKsH27MNp-35">
          <mxGeometry relative="1" as="geometry" />
        </mxCell>
        <mxCell id="HiGR0V0xMvPDKsH27MNp-27" value="participants_summary.csv" style="rounded=0;whiteSpace=wrap;html=1;fillColor=#f5f5f5;fontColor=#333333;strokeColor=#666666;" vertex="1" parent="WIyWlLk6GJQsqaUBKTNV-1">
          <mxGeometry x="380" y="470" width="160" height="60" as="geometry" />
        </mxCell>
        <mxCell id="HiGR0V0xMvPDKsH27MNp-39" style="edgeStyle=orthogonalEdgeStyle;rounded=0;orthogonalLoop=1;jettySize=auto;html=1;" edge="1" parent="WIyWlLk6GJQsqaUBKTNV-1" source="HiGR0V0xMvPDKsH27MNp-29" target="HiGR0V0xMvPDKsH27MNp-37">
          <mxGeometry relative="1" as="geometry" />
        </mxCell>
        <mxCell id="HiGR0V0xMvPDKsH27MNp-29" value="&lt;i&gt;Plot Participant Data&lt;/i&gt;" style="rounded=1;whiteSpace=wrap;html=1;fillColor=#f8cecc;strokeColor=#b85450;" vertex="1" parent="WIyWlLk6GJQsqaUBKTNV-1">
          <mxGeometry x="290" y="600" width="120" height="60" as="geometry" />
        </mxCell>
        <mxCell id="HiGR0V0xMvPDKsH27MNp-34" style="edgeStyle=orthogonalEdgeStyle;rounded=0;orthogonalLoop=1;jettySize=auto;html=1;entryX=1;entryY=0.5;entryDx=0;entryDy=0;" edge="1" parent="WIyWlLk6GJQsqaUBKTNV-1" source="HiGR0V0xMvPDKsH27MNp-31" target="HiGR0V0xMvPDKsH27MNp-22">
          <mxGeometry relative="1" as="geometry" />
        </mxCell>
        <mxCell id="HiGR0V0xMvPDKsH27MNp-31" value="&lt;b&gt;Behavioural Data&lt;/b&gt;&lt;div&gt;sequence_times_pre.csv&lt;/div&gt;&lt;div&gt;sequence_times_post.csv&lt;/div&gt;" style="rounded=0;whiteSpace=wrap;html=1;fillColor=#f5f5f5;fontColor=#333333;strokeColor=#666666;" vertex="1" parent="WIyWlLk6GJQsqaUBKTNV-1">
          <mxGeometry x="590" y="355" width="160" height="70" as="geometry" />
        </mxCell>
        <mxCell id="HiGR0V0xMvPDKsH27MNp-40" style="edgeStyle=orthogonalEdgeStyle;rounded=0;orthogonalLoop=1;jettySize=auto;html=1;" edge="1" parent="WIyWlLk6GJQsqaUBKTNV-1" source="HiGR0V0xMvPDKsH27MNp-35" target="HiGR0V0xMvPDKsH27MNp-38">
          <mxGeometry relative="1" as="geometry" />
        </mxCell>
        <mxCell id="HiGR0V0xMvPDKsH27MNp-35" value="&lt;i&gt;Stats for Participants&lt;/i&gt;" style="rounded=1;whiteSpace=wrap;html=1;fillColor=#f8cecc;strokeColor=#b85450;" vertex="1" parent="WIyWlLk6GJQsqaUBKTNV-1">
          <mxGeometry x="510" y="600" width="120" height="60" as="geometry" />
        </mxCell>
        <mxCell id="HiGR0V0xMvPDKsH27MNp-37" value="&lt;b&gt;Figures&lt;/b&gt;" style="rounded=0;whiteSpace=wrap;html=1;fillColor=#f5f5f5;fontColor=#333333;strokeColor=#666666;" vertex="1" parent="WIyWlLk6GJQsqaUBKTNV-1">
          <mxGeometry x="290" y="700" width="120" height="60" as="geometry" />
        </mxCell>
        <mxCell id="HiGR0V0xMvPDKsH27MNp-38" value="&lt;b&gt;Stats&lt;/b&gt;" style="rounded=0;whiteSpace=wrap;html=1;fillColor=#f5f5f5;fontColor=#333333;strokeColor=#666666;" vertex="1" parent="WIyWlLk6GJQsqaUBKTNV-1">
          <mxGeometry x="510" y="700" width="120" height="60" as="geometry" />
        </mxCell>
      </root>
    </mxGraphModel>
  </diagram>
</mxfile>
